<svg width="51" height="52" viewBox="0 0 51 52" fill="none" xmlns="http://www.w3.org/2000/svg">
<path d="M25.5002 0.889648C20.6941 0.890337 15.993 2.32282 11.9756 5.01078C7.95828 7.69874 4.79998 11.5249 2.88949 16.0182C0.979 20.5115 0.399698 25.476 1.22289 30.3005C2.04608 35.1249 4.23584 39.5989 7.52264 43.1716L1.08844 49.7273C0.977318 49.84 0.901422 49.9838 0.870301 50.1404C0.839179 50.297 0.854222 50.4595 0.913537 50.6074C0.97411 50.7558 1.07635 50.8826 1.20742 50.972C1.33848 51.0613 1.49254 51.1092 1.65024 51.1096H25.5002C32.0365 51.1096 38.305 48.4641 42.9269 43.7551C47.5487 39.0461 50.1452 32.6592 50.1452 25.9996C50.1452 19.3401 47.5487 12.9532 42.9269 8.2442C38.305 3.53516 32.0365 0.889648 25.5002 0.889648ZM25.5002 49.4897H3.56884L9.19744 43.7548C9.27179 43.68 9.33083 43.5909 9.37112 43.4926C9.41141 43.3944 9.43215 43.2889 9.43215 43.1824C9.43215 43.076 9.41141 42.9705 9.37112 42.8723C9.33083 42.774 9.27179 42.6849 9.19744 42.6101C5.42571 38.7674 3.07838 33.7111 2.55541 28.3028C2.03245 22.8944 3.3662 17.4686 6.32941 12.9499C9.29262 8.43117 13.702 5.09906 18.8061 3.52134C23.9103 1.94361 29.3934 2.21788 34.3214 4.29742C39.2493 6.37695 43.3171 10.1331 45.8316 14.9258C48.3462 19.7185 49.1519 25.2513 48.1115 30.5815C47.0711 35.9116 44.249 40.7093 40.1259 44.1571C36.0029 47.6049 30.8341 49.4894 25.5002 49.4897Z" fill="white"/>
<path d="M25.5002 16.2797C26.0736 16.2797 26.6341 16.1064 27.1108 15.7819C27.5876 15.4573 27.9592 14.996 28.1786 14.4562C28.398 13.9165 28.4554 13.3226 28.3436 12.7496C28.2317 12.1766 27.9556 11.6503 27.5501 11.2372C27.1447 10.8241 26.6281 10.5428 26.0658 10.4288C25.5034 10.3149 24.9205 10.3734 24.3907 10.5969C23.861 10.8205 23.4082 11.1991 23.0897 11.6848C22.7711 12.1706 22.6011 12.7417 22.6011 13.3259C22.6011 14.1093 22.9065 14.8606 23.4502 15.4145C23.9939 15.9685 24.7313 16.2797 25.5002 16.2797ZM25.5002 11.9921C25.7591 11.9921 26.0122 12.0703 26.2275 12.2169C26.4427 12.3634 26.6105 12.5717 26.7096 12.8154C26.8087 13.0592 26.8346 13.3274 26.7841 13.5861C26.7336 13.8448 26.6089 14.0825 26.4258 14.269C26.2428 14.4555 26.0095 14.5826 25.7556 14.634C25.5016 14.6855 25.2384 14.6591 24.9992 14.5581C24.76 14.4572 24.5555 14.2862 24.4117 14.0669C24.2678 13.8475 24.1911 13.5897 24.1911 13.3259C24.198 12.9763 24.3388 12.6434 24.5834 12.3982C24.828 12.153 25.157 12.015 25.5002 12.0137V11.9921ZM29.9416 35.7197H28.3993V20.1245C28.3993 19.3411 28.0938 18.5898 27.5501 18.0358C27.0065 17.4819 26.2691 17.1707 25.5002 17.1707H22.0287C21.2598 17.1707 20.5224 17.4819 19.9787 18.0358C19.435 18.5898 19.1296 19.3411 19.1296 20.1245C19.1296 20.9079 19.435 21.6592 19.9787 22.2131C20.5224 22.7671 21.2598 23.0783 22.0287 23.0783H22.6011V35.7197H21.0588C20.6781 35.7197 20.3011 35.7961 19.9493 35.9445C19.5976 36.093 19.278 36.3105 19.0088 36.5848C18.7396 36.8591 18.526 37.1847 18.3803 37.5431C18.2347 37.9015 18.1597 38.2856 18.1597 38.6735C18.1597 39.0614 18.2347 39.4455 18.3803 39.8038C18.526 40.1622 18.7396 40.4878 19.0088 40.7621C19.278 41.0364 19.5976 41.254 19.9493 41.4024C20.3011 41.5509 20.6781 41.6273 21.0588 41.6273H29.9416C30.3223 41.6273 30.6993 41.5509 31.051 41.4024C31.4027 41.254 31.7223 41.0364 31.9915 40.7621C32.2607 40.4878 32.4743 40.1622 32.62 39.8038C32.7657 39.4455 32.8407 39.0614 32.8407 38.6735C32.8407 38.2856 32.7657 37.9015 32.62 37.5431C32.4743 37.1847 32.2607 36.8591 31.9915 36.5848C31.7223 36.3105 31.4027 36.093 31.051 35.9445C30.6993 35.7961 30.3223 35.7197 29.9416 35.7197ZM29.9416 40.0073H21.0588C20.7116 40.0073 20.3786 39.8667 20.1331 39.6166C19.8876 39.3665 19.7497 39.0272 19.7497 38.6735C19.7497 38.3197 19.8876 37.9805 20.1331 37.7303C20.3786 37.4802 20.7116 37.3397 21.0588 37.3397H23.3802C23.591 37.3397 23.7932 37.2543 23.9423 37.1024C24.0914 36.9505 24.1752 36.7445 24.1752 36.5297V22.2683C24.1752 22.0534 24.0914 21.8474 23.9423 21.6955C23.7932 21.5436 23.591 21.4583 23.3802 21.4583H22.0287C21.6815 21.4583 21.3485 21.3177 21.103 21.0676C20.8575 20.8175 20.7196 20.4782 20.7196 20.1245C20.7196 19.7707 20.8575 19.4315 21.103 19.1813C21.3485 18.9312 21.6815 18.7907 22.0287 18.7907H25.5002C25.8469 18.7921 26.1791 18.9331 26.4243 19.1829C26.6695 19.4327 26.8079 19.7712 26.8093 20.1245V36.5081C26.8064 36.6176 26.8253 36.7266 26.865 36.8285C26.9047 36.9304 26.9642 37.023 27.04 37.1007C27.1158 37.1785 27.2063 37.2397 27.306 37.2808C27.4058 37.3219 27.5126 37.3419 27.6202 37.3397H29.9575C30.3047 37.3397 30.6376 37.4802 30.8831 37.7303C31.1286 37.9805 31.2666 38.3197 31.2666 38.6735C31.2666 39.0272 31.1286 39.3665 30.8831 39.6166C30.6376 39.8667 30.3047 40.0073 29.9575 40.0073H29.9416Z" fill="white"/>
</svg>
