<svg width="59" height="46" viewBox="0 0 59 46" fill="none" xmlns="http://www.w3.org/2000/svg">
<path d="M47.9375 2.875H11.0625C9.59552 2.875 8.18863 3.32935 7.15132 4.1381C6.11401 4.94685 5.53125 6.04375 5.53125 7.1875V38.8125C5.53125 39.9562 6.11401 41.0531 7.15132 41.8619C8.18863 42.6707 9.59552 43.125 11.0625 43.125H47.9375C49.4045 43.125 50.8114 42.6707 51.8487 41.8619C52.886 41.0531 53.4688 39.9562 53.4688 38.8125V7.1875C53.4688 6.04375 52.886 4.94685 51.8487 4.1381C50.8114 3.32935 49.4045 2.875 47.9375 2.875ZM35.0312 5.75V13.455L30.5509 11.6581C30.2936 11.557 30.0094 11.5044 29.7213 11.5044C29.4331 11.5044 29.1489 11.557 28.8916 11.6581L23.9688 13.5125V5.75H35.0312ZM49.7812 38.8125C49.7812 39.1937 49.587 39.5594 49.2412 39.829C48.8955 40.0985 48.4265 40.25 47.9375 40.25H11.0625C10.5735 40.25 10.1045 40.0985 9.75877 39.829C9.413 39.5594 9.21875 39.1937 9.21875 38.8125V7.1875C9.21875 6.80625 9.413 6.44062 9.75877 6.17103C10.1045 5.90145 10.5735 5.75 11.0625 5.75H20.2812V15.8125C20.2806 16.0568 20.3599 16.2972 20.5115 16.511C20.6631 16.7248 20.8821 16.9049 21.1478 17.0344C21.4135 17.1639 21.7172 17.2384 22.0301 17.251C22.343 17.2635 22.6549 17.2137 22.9362 17.1062L29.6844 14.5475L36.0269 17.0919C36.2909 17.1932 36.5807 17.2473 36.875 17.25C37.364 17.25 37.833 17.0985 38.1787 16.829C38.5245 16.5594 38.7188 16.1937 38.7188 15.8125V5.75H47.9375C48.4265 5.75 48.8955 5.90145 49.2412 6.17103C49.587 6.44062 49.7812 6.80625 49.7812 7.1875V38.8125ZM12.9062 34.5H25.8125V37.375H12.9062V34.5ZM12.9062 28.75H25.8125V31.625H12.9062V28.75Z" fill="white"/>
</svg>
