<svg width="43" height="46" viewBox="0 0 43 46" fill="none" xmlns="http://www.w3.org/2000/svg">
<path d="M30.3736 2.25C28.7888 0.96875 26.6144 1.46875 25.5885 1.75781C25.0295 1.17187 23.8352 0.34375 21.5 0.34375C18.606 0.34375 14.6094 0.679687 12.19 2.27344C7.63454 5.24219 6.95314 13.625 6.95314 18.3125V25.3438C6.95256 25.4466 6.97187 25.5485 7.00997 25.6437C7.04807 25.7389 7.10421 25.8254 7.17517 25.8984C7.34361 26.0625 8.33126 26.9062 11.5469 26.9062C12.36 26.9534 13.1711 26.7845 13.9011 26.4162C14.6311 26.0479 15.255 25.4926 15.7119 24.8047C17.5427 26.3171 19.8728 27.0542 22.2209 26.8637C24.569 26.6733 26.7558 25.5698 28.3294 23.7812H30.6875C31.2967 23.7812 31.8809 23.5343 32.3116 23.0948C32.7424 22.6552 32.9844 22.0591 32.9844 21.4375V19.0938C33.5936 19.0938 34.1778 18.8468 34.6085 18.4073C35.0393 17.9677 35.2813 17.3716 35.2813 16.75V12.8438C35.2793 12.3466 35.1225 11.8629 34.8335 11.4627C34.5445 11.0624 34.1382 10.7663 33.6735 10.6172C33.8572 9.05189 33.6512 7.46457 33.0744 6.00206C32.4976 4.53955 31.5687 3.24908 30.3736 2.25ZM12.3125 12.3281V16.6094C11.9175 16.4644 11.569 16.2117 11.3049 15.8789C11.0408 15.546 10.8711 15.1456 10.8142 14.7212C10.7574 14.2969 10.8156 13.8647 10.9826 13.4717C11.1496 13.0787 11.4189 12.74 11.7613 12.4922L12.3125 12.3281ZM27.625 22.2188H22.8169C22.6483 21.9209 22.3882 21.6881 22.0768 21.5564C21.7653 21.4248 21.4201 21.4017 21.0945 21.4907C20.7689 21.5798 20.4812 21.7759 20.276 22.0488C20.0708 22.3217 19.9595 22.656 19.9595 23C19.9595 23.344 20.0708 23.6783 20.276 23.9512C20.4812 24.2241 20.7689 24.4202 21.0945 24.5093C21.4201 24.5983 21.7653 24.5752 22.0768 24.4436C22.3882 24.3119 22.6483 24.0791 22.8169 23.7812H26.0938C24.9563 24.6518 23.6037 25.1819 22.1876 25.3122C20.7715 25.4425 19.3478 25.1678 18.076 24.519C16.8043 23.8701 15.7347 22.8727 14.9872 21.6385C14.2397 20.4043 13.8438 18.9821 13.8438 17.5312V13.625C15.9669 13.5787 18.0802 13.317 20.1525 12.8438C21.7374 12.4334 23.1843 11.594 24.3405 10.4141C25.5349 12.4062 28.0231 13.3672 29.1563 13.7188C28.9419 16.3359 29.8606 19.1797 27.625 22.2188ZM31.4531 21.4375C31.4531 21.6447 31.3725 21.8434 31.2289 21.9899C31.0853 22.1364 30.8906 22.2188 30.6875 22.2188H29.4472C30.0272 20.978 30.4443 19.6646 30.6875 18.3125C30.6875 18.5197 30.7682 18.7184 30.9118 18.8649C31.0553 19.0114 31.2501 19.0938 31.4531 19.0938V21.4375Z" fill="white"/>
<path d="M40.296 33.9375C39.9069 32.7687 39.2278 31.7226 38.3248 30.9012C37.4218 30.0797 36.3258 29.5109 35.1434 29.25H35.0745L26.0324 27.4297C24.6155 28.1139 23.0675 28.4688 21.4999 28.4688C19.9324 28.4688 18.3843 28.1139 16.9674 27.4297C15.7501 27.6875 7.84883 29.25 7.35883 29.3594C6.1015 29.7219 4.9711 30.4417 4.09945 31.4349C3.22781 32.4281 2.65085 33.6537 2.43587 34.9688L0.828053 44.7422C0.808915 44.8553 0.814446 44.9714 0.844254 45.0821C0.874062 45.1928 0.927413 45.2954 1.00051 45.3827C1.07361 45.4699 1.16466 45.5397 1.26718 45.587C1.36971 45.6343 1.48118 45.6579 1.59368 45.6562H17.9934C18.1051 45.6577 18.2158 45.6342 18.3177 45.5874C18.4196 45.5406 18.5102 45.4715 18.5831 45.3852C18.6561 45.2988 18.7096 45.1972 18.74 45.0875C18.7704 44.9777 18.7769 44.8626 18.759 44.75L16.4621 30.2422L20.9257 33.6172C21.0568 33.715 21.215 33.7677 21.3774 33.7677C21.5398 33.7677 21.698 33.715 21.8291 33.6172L26.6066 30.1641L24.3098 44.7344C24.306 44.955 24.382 45.1693 24.5232 45.3365C24.6644 45.5036 24.861 45.6119 25.0754 45.6406H41.4062C41.5179 45.6421 41.6286 45.6186 41.7305 45.5718C41.8324 45.5249 41.923 45.4559 41.9959 45.3695C42.0689 45.2832 42.1225 45.1816 42.1528 45.0718C42.1832 44.9621 42.1897 44.8469 42.1718 44.7344C40.4721 34.5781 40.6406 34.8281 40.3037 33.875L40.296 33.9375Z" fill="white"/>
</svg>
