<svg width="59" height="55" viewBox="0 0 59 55" fill="none" xmlns="http://www.w3.org/2000/svg">
<path d="M29.5 3.79297C22.7576 3.8 16.2935 6.29994 11.5259 10.7443C6.75826 15.1887 4.07651 21.2146 4.06897 27.4999C4.08027 33.7841 6.76323 39.8079 11.53 44.2515C16.2968 48.6952 22.7587 51.1962 29.5 51.2068C36.2447 51.2068 42.7132 48.7091 47.4825 44.2632C52.2517 39.8173 54.931 33.7873 54.931 27.4999C54.931 21.2124 52.2517 15.1825 47.4825 10.7366C42.7132 6.29065 36.2447 3.79297 29.5 3.79297ZM44.9682 41.1797C43.5399 38.4942 41.335 36.2342 38.6022 34.6547C35.8694 33.0752 32.7175 32.2391 29.5021 32.2407C26.2866 32.2423 23.1357 33.0815 20.4047 34.6636C17.6736 36.2458 15.4713 38.508 14.0461 41.1949C10.2435 37.5184 8.12459 32.6069 8.13794 27.4999C8.13794 22.2184 10.3886 17.1532 14.3947 13.4187C18.4009 9.68413 23.8344 7.58607 29.5 7.58607C35.1656 7.58607 40.5991 9.68413 44.6053 13.4187C48.6114 17.1532 50.8621 22.2184 50.8621 27.4999C50.8748 32.5998 48.7615 37.5048 44.9682 41.1797ZM29.5 13.2757C27.6893 13.2757 25.9192 13.7763 24.4137 14.714C22.9081 15.6518 21.7347 16.9847 21.0417 18.5442C20.3488 20.1037 20.1675 21.8197 20.5207 23.4752C20.874 25.1307 21.7459 26.6514 23.0263 27.845C24.3067 29.0386 25.938 29.8514 27.7139 30.1807C29.4898 30.51 31.3306 30.341 33.0035 29.695C34.6764 29.0491 36.1063 27.9552 37.1123 26.5517C38.1182 25.1482 38.6552 23.4982 38.6552 21.8102C38.6552 20.6894 38.4184 19.5797 37.9583 18.5442C37.4982 17.5088 36.8238 16.5679 35.9737 15.7754C35.1236 14.9829 34.1143 14.3543 33.0035 13.9254C31.8928 13.4965 30.7023 13.2757 29.5 13.2757Z" fill="white"/>
</svg>
