<svg width="71" height="45" viewBox="0 0 71 45" fill="none" xmlns="http://www.w3.org/2000/svg">
<path d="M65.4531 0C66.2158 0 66.9323 0.127841 67.6025 0.383523C68.2728 0.639205 68.8621 1.01207 69.3706 1.50213C69.8791 1.99219 70.272 2.53551 70.5493 3.1321C70.8267 3.72869 70.9769 4.3892 71 5.11364V39.8864C71 40.5895 70.8613 41.25 70.584 41.8679C70.3066 42.4858 69.9022 43.0291 69.3706 43.4979C68.839 43.9666 68.2497 44.3288 67.6025 44.5845C66.9554 44.8402 66.2389 44.9787 65.4531 45H5.54688C4.78418 45 4.06771 44.8722 3.39746 44.6165C2.72721 44.3608 2.13786 43.9879 1.62939 43.4979C1.12093 43.0078 0.728027 42.4645 0.450684 41.8679C0.17334 41.2713 0.023112 40.6108 0 39.8864V5.11364C0 4.41051 0.138672 3.75 0.416016 3.1321C0.693359 2.5142 1.09782 1.97088 1.62939 1.50213C2.16097 1.03338 2.75033 0.671165 3.39746 0.415483C4.0446 0.159801 4.76107 0.0213068 5.54688 0H65.4531ZM5.54688 4.09091C5.22331 4.09091 4.95752 4.18679 4.74951 4.37855C4.5415 4.57031 4.4375 4.81534 4.4375 5.11364V12.2727H66.5625V5.11364C66.5625 4.81534 66.4585 4.57031 66.2505 4.37855C66.0425 4.18679 65.7767 4.09091 65.4531 4.09091H5.54688ZM65.4531 40.9091C65.7767 40.9091 66.0425 40.8132 66.2505 40.6214C66.4585 40.4297 66.5625 40.1847 66.5625 39.8864V16.3636H4.4375V39.8864C4.4375 40.1847 4.5415 40.4297 4.74951 40.6214C4.95752 40.8132 5.22331 40.9091 5.54688 40.9091H65.4531ZM48.8125 28.6364H57.6875V32.7273H48.8125V28.6364Z" fill="#22BBFC"/>
</svg>
