<svg width="45" height="41" viewBox="0 0 45 41" fill="none" xmlns="http://www.w3.org/2000/svg">
<path d="M0.833496 20.5003C0.833496 21.0197 1.11884 21.5178 1.62675 21.8851C2.13466 22.2523 2.82354 22.4587 3.54183 22.4587H24.0981L17.8689 26.9432C17.6151 27.1253 17.4136 27.3419 17.2761 27.5805C17.1386 27.8192 17.0678 28.0751 17.0678 28.3337C17.0678 28.5922 17.1386 28.8481 17.2761 29.0868C17.4136 29.3254 17.6151 29.542 17.8689 29.7241C18.1207 29.9076 18.4202 30.0533 18.7503 30.1527C19.0803 30.2522 19.4343 30.3033 19.7918 30.3033C20.1494 30.3033 20.5034 30.2522 20.8334 30.1527C21.1634 30.0533 21.463 29.9076 21.7147 29.7241L32.5481 21.8907C32.7947 21.7045 32.9879 21.4849 33.1168 21.2445C33.3877 20.7677 33.3877 20.2329 33.1168 19.7562C32.9879 19.5158 32.7947 19.2962 32.5481 19.1099L21.7147 11.2766C21.4622 11.094 21.1624 10.9491 20.8325 10.8503C20.5026 10.7515 20.149 10.7006 19.7918 10.7006C19.4347 10.7006 19.0811 10.7515 18.7512 10.8503C18.4212 10.9491 18.1214 11.094 17.8689 11.2766C17.6164 11.4592 17.4161 11.6759 17.2794 11.9145C17.1428 12.1531 17.0724 12.4088 17.0724 12.667C17.0724 12.9252 17.1428 13.1809 17.2794 13.4195C17.4161 13.658 17.6164 13.8748 17.8689 14.0574L24.0981 18.542H3.54183C2.82354 18.542 2.13466 18.7483 1.62675 19.1156C1.11884 19.4828 0.833496 19.9809 0.833496 20.5003ZM36.0418 0.916992H8.9585C6.80361 0.916992 4.73699 1.53596 3.21325 2.63774C1.68952 3.73952 0.833496 5.23385 0.833496 6.79199V12.667C0.833496 13.1864 1.11884 13.6845 1.62675 14.0517C2.13466 14.419 2.82354 14.6253 3.54183 14.6253C4.26012 14.6253 4.949 14.419 5.45691 14.0517C5.96482 13.6845 6.25016 13.1864 6.25016 12.667V6.79199C6.25016 6.27261 6.53551 5.7745 7.04342 5.40724C7.55133 5.03998 8.2402 4.83366 8.9585 4.83366H36.0418C36.7601 4.83366 37.449 5.03998 37.9569 5.40724C38.4648 5.7745 38.7502 6.27261 38.7502 6.79199V34.2087C38.7502 34.728 38.4648 35.2262 37.9569 35.5934C37.449 35.9607 36.7601 36.167 36.0418 36.167H8.9585C8.2402 36.167 7.55133 35.9607 7.04342 35.5934C6.53551 35.2262 6.25016 34.728 6.25016 34.2087V28.3337C6.25016 27.8143 5.96482 27.3162 5.45691 26.9489C4.949 26.5816 4.26012 26.3753 3.54183 26.3753C2.82354 26.3753 2.13466 26.5816 1.62675 26.9489C1.11884 27.3162 0.833496 27.8143 0.833496 28.3337V34.2087C0.833496 35.7668 1.68952 37.2611 3.21325 38.3629C4.73699 39.4647 6.80361 40.0837 8.9585 40.0837H36.0418C38.1967 40.0837 40.2633 39.4647 41.7871 38.3629C43.3108 37.2611 44.1668 35.7668 44.1668 34.2087V6.79199C44.1668 5.23385 43.3108 3.73952 41.7871 2.63774C40.2633 1.53596 38.1967 0.916992 36.0418 0.916992Z" fill="white"/>
</svg>
