<svg width="54" height="50" viewBox="0 0 54 50" fill="none" xmlns="http://www.w3.org/2000/svg">
<g clip-path="url(#clip0_904_1838)">
<path d="M29.25 0H24.75C22.8892 0 21.375 1.40208 21.375 3.125V7.00417C19.9348 7.38961 18.5458 7.92314 17.2339 8.59479L14.2706 5.85C12.9949 4.66875 10.773 4.67084 9.49725 5.85L6.31462 8.79583C5.67675 9.38542 5.32575 10.1708 5.32575 11.0052C5.32575 11.8396 5.67675 12.625 6.31462 13.2146L9.279 15.9604C8.55357 17.1742 7.97807 18.4597 7.56337 19.7927H3.375C1.51425 19.7927 0 21.1948 0 22.9177V27.0844C0 27.9198 0.351 28.7042 0.98775 29.2938C1.30062 29.5848 1.67267 29.8156 2.08242 29.9728C2.49217 30.1299 2.93149 30.2103 3.375 30.2094H7.5645C7.98075 31.5406 8.5545 32.825 9.28125 34.0417L6.318 36.7865C5.68584 37.3728 5.33078 38.1674 5.33078 38.9958C5.33078 39.8243 5.68584 40.6189 6.318 41.2052L9.4995 44.1521C10.7741 45.3313 12.9971 45.3333 14.2729 44.1521L17.2372 41.4073C18.5482 42.0781 19.9361 42.6109 21.375 42.9958V46.875C21.375 48.5979 22.8892 50 24.75 50H29.25C31.1108 50 32.625 48.5979 32.625 46.875V42.9958C34.065 42.6104 35.451 42.0781 36.7628 41.4073L39.7271 44.1521C41.0029 45.3313 43.2248 45.3333 44.5005 44.1521L47.6831 41.2063C48.321 40.6167 48.672 39.8313 48.672 38.9969C48.672 38.1625 48.321 37.3771 47.6831 36.7875L44.7199 34.0427C45.4456 32.8286 46.0214 31.5427 46.4366 30.2094H50.625C52.4857 30.2094 54 28.8073 54 27.0844V22.9177C54 22.0823 53.649 21.2979 53.0123 20.7083C52.3755 20.1187 51.5272 19.7927 50.625 19.7927H46.4355C46.0195 18.4596 45.4437 17.1738 44.7188 15.9594L47.682 13.2146C48.3142 12.6283 48.6692 11.8337 48.6692 11.0052C48.6692 10.1767 48.3142 9.38213 47.682 8.79583L44.5005 5.84896C43.2248 4.66875 41.0029 4.66875 39.7271 5.84896L36.765 8.59375C35.4537 7.92262 34.0655 7.38945 32.6261 7.00417V3.125C32.6246 2.29644 32.2684 1.50223 31.6356 0.916447C31.0027 0.330666 30.1448 0.00110245 29.25 0ZM17.0516 10.9396C17.253 10.9396 17.4566 10.8896 17.6378 10.7875C19.2253 9.88757 20.9551 9.22295 22.7644 8.81771C23.0097 8.76279 23.2279 8.63309 23.384 8.44945C23.5401 8.26581 23.625 8.0389 23.625 7.80521V3.125C23.625 2.55 24.1301 2.08334 24.75 2.08334H29.25C29.8699 2.08334 30.375 2.55 30.375 3.125V7.80521C30.375 8.0389 30.4599 8.26581 30.616 8.44945C30.7721 8.63309 30.9903 8.76279 31.2356 8.81771C33.0445 9.22271 34.7738 9.88697 36.3611 10.7865C36.8066 11.0375 37.3759 10.974 37.7437 10.6344L41.319 7.32292C41.7409 6.93333 42.4879 6.93125 42.9109 7.32292L46.0924 10.2698C46.3033 10.4651 46.4218 10.73 46.4218 11.0063C46.4218 11.2825 46.3033 11.5474 46.0924 11.7427L42.516 15.0542C42.3374 15.2195 42.2241 15.4357 42.1943 15.6679C42.1645 15.9001 42.22 16.1349 42.3517 16.3344C43.3231 17.804 44.0401 19.4053 44.4769 21.0802C44.536 21.3076 44.676 21.5099 44.8743 21.6546C45.0727 21.7993 45.3178 21.8781 45.5704 21.8781H50.625C50.7727 21.8776 50.9191 21.9041 51.0557 21.9561C51.1923 22.0081 51.3165 22.0846 51.421 22.1813C51.5256 22.2779 51.6085 22.3927 51.6649 22.5191C51.7214 22.6455 51.7503 22.7809 51.75 22.9177V27.0844C51.75 27.6594 51.2449 28.126 50.625 28.126H45.5704C45.3178 28.1259 45.0725 28.2046 44.8741 28.3493C44.6757 28.4941 44.5358 28.6965 44.4769 28.924C44.0403 30.5989 43.3232 32.2002 42.3517 33.6698C42.22 33.8693 42.1645 34.104 42.1943 34.3363C42.2241 34.5685 42.3374 34.7847 42.516 34.95L46.0924 38.2615C46.3016 38.4563 46.422 38.724 46.422 38.9979C46.422 39.2719 46.3016 39.5406 46.0924 39.7344L42.9097 42.6802C42.695 42.8692 42.4101 42.9746 42.1138 42.9746C41.8176 42.9746 41.5326 42.8692 41.3179 42.6802L37.7415 39.3687C37.5635 39.2026 37.3299 39.0971 37.0788 39.0694C36.8278 39.0418 36.574 39.0937 36.3589 39.2167C34.7723 40.1158 33.0437 40.7797 31.2356 41.1844C30.9904 41.2387 30.7721 41.368 30.6159 41.5513C30.4598 41.7346 30.3749 41.9613 30.375 42.1948V46.875C30.375 47.45 29.8699 47.9167 29.25 47.9167H24.75C24.1301 47.9167 23.625 47.45 23.625 46.875V42.1948C23.625 41.9611 23.5401 41.7342 23.384 41.5506C23.2279 41.3669 23.0097 41.2372 22.7644 41.1823C20.9556 40.7777 19.2262 40.1138 17.6389 39.2146C17.4237 39.0924 17.1703 39.041 16.9196 39.0686C16.669 39.0962 16.4357 39.2012 16.2574 39.3667L12.681 42.6781C12.4663 42.8671 12.1813 42.9725 11.8851 42.9725C11.5888 42.9725 11.3039 42.8671 11.0891 42.6781L7.90875 39.7323C7.69785 39.537 7.57937 39.272 7.57937 38.9958C7.57937 38.7196 7.69785 38.4547 7.90875 38.2594L11.4851 34.9479C11.6637 34.7826 11.777 34.5664 11.8068 34.3342C11.8366 34.1019 11.7812 33.8672 11.6494 33.6677C10.6781 32.1984 9.96105 30.5975 9.52425 28.9229C9.46515 28.6956 9.32517 28.4933 9.12682 28.3485C8.92847 28.2038 8.68329 28.1251 8.43075 28.125H3.375C3.22719 28.1256 3.08073 28.099 2.94404 28.0469C2.80735 27.9948 2.68315 27.9182 2.57858 27.8215C2.47401 27.7248 2.39114 27.6098 2.33475 27.4833C2.27836 27.3568 2.24955 27.2212 2.25 27.0844V22.9177C2.25 22.3427 2.75513 21.876 3.375 21.876H8.42962C8.94938 21.876 9.40163 21.5469 9.52312 21.0781C9.96011 19.4036 10.6771 17.8027 11.6483 16.3333C11.78 16.1338 11.8355 15.8991 11.8057 15.6669C11.7759 15.4347 11.6626 15.2185 11.484 15.0531L7.90762 11.7406C7.69837 11.5458 7.578 11.2781 7.578 11.0042C7.578 10.7302 7.69837 10.4615 7.90762 10.2677L11.0903 7.32188C11.305 7.1329 11.5899 7.02753 11.8862 7.02753C12.1824 7.02753 12.4674 7.1329 12.6821 7.32188L16.2574 10.6333C16.3612 10.7306 16.4849 10.8078 16.6213 10.8603C16.7576 10.9129 16.9039 10.9399 17.0516 10.9396Z" fill="white"/>
<path d="M27 14.5837C20.7968 14.5837 15.75 19.2566 15.75 25.0003C15.75 30.7441 20.7968 35.417 27 35.417C33.2033 35.417 38.25 30.7441 38.25 25.0003C38.25 19.2566 33.2044 14.5837 27 14.5837ZM27 33.3337C22.0376 33.3337 18 29.5951 18 25.0003C18 20.4055 22.0376 16.667 27 16.667C31.9624 16.667 36 20.4055 36 25.0003C36 29.5951 31.9635 33.3337 27 33.3337Z" fill="white"/>
</g>
<defs>
<clipPath id="clip0_904_1838">
<rect width="54" height="50" fill="white" transform="matrix(1 0 0 -1 0 50)"/>
</clipPath>
</defs>
</svg>
